<svg width="318" height="356" viewBox="0 0 318 356" fill="none" xmlns="http://www.w3.org/2000/svg">
<path d="M195.85 188.52L155.54 91.78L166.62 87.16L206.93 183.91L195.85 188.52Z" fill="white"/>
<path d="M118.82 187.83L107.9 182.86L151.48 86.98L162.4 91.95L118.82 187.83Z" fill="white"/>
<path d="M156.89 355.57L55.48 241.48L0.670013 209.89L24.49 137.52L14.97 0.48999L115.94 72.61L157.1 83.31L201.84 74.2L317.37 6.95999L305.05 141.56L316.96 215.76L256.5 245.99L156.89 355.57ZM15.12 204.37L63.16 232.05L156.99 337.62L249.13 236.26L303.72 208.97L292.97 141.97L293.04 141.22L303.31 29.04L206.18 85.57L156.78 95.63L110.78 83.67L28.71 25.05L36.63 139.04L15.12 204.37Z" fill="white"/>
<path d="M308.94 218.2L200.65 192.21L113.94 191.35L13.03 212.14L10.61 200.38L112.78 179.34L202.13 180.22L311.74 206.53L308.94 218.2Z" fill="white"/>
<path d="M156.87 355.5L108.3 189.43L22.02 142.7L109.64 73.43L117.08 82.84L43.75 140.82L118.42 181.26L157.01 313.25L196.41 181.94L282.91 140.84L200.63 84.84L207.38 74.92L306.97 142.69L206.37 190.49L156.87 355.5Z" fill="white"/>
</svg>
